<svg xmlns="http://www.w3.org/2000/svg" shape-rendering="geometricPrecision" text-rendering="geometricPrecision" image-rendering="optimizeQuality" fill-rule="evenodd" clip-rule="evenodd" viewBox="0 0 451 511.596"><path d="M229.331 0c12 0 18.576 7.25 23.345 17.476 4.996-4.618 11.774-7.455 19.238-7.455 15.362 0 27.815 12.019 27.815 26.845l-.004.276a28.549 28.549 0 0111.747-2.507c15.362 0 27.814 12.02 27.814 26.845 0 2.743-.426 5.389-1.218 7.881 1.638-.29-3.493-.442 5.051-.442 22.717 0 35.494 19.949 24.478 39.605 14.606.811 26.194 12.498 26.194 26.799 0 7.602-3.275 14.467-8.536 19.35 7.527 4.804 12.491 13.045 12.491 22.406 0 11.587-7.605 21.458-18.259 25.219 5.025 4.857 10.034 7.119 10.034 15.845s-7.621 21.927-16.087 26.53c4.074 4.669 6.528 10.696 6.528 17.276 0 11.971-8.118 22.11-19.327 25.573a25.975 25.975 0 013.054 12.24c0 12.838-9.339 23.569-21.817 26.218 31.06 13.597 56.545 33.992 74.547 61.688 21.101 32.465 34.062 85.974 34.581 123.928h-93.608v-30.513a5.667 5.667 0 00-11.333 0v30.513H106.704v-30.513a5.667 5.667 0 00-11.333 0v30.513H.012c-.552-35.67 18.222-93.316 38.173-124.12 18.544-28.63 44.071-49.824 76.564-61.743-13.085-2.186-23.036-13.196-23.036-26.45 0-1.73.172-3.422.496-5.061-12.105-2.907-21.077-13.466-21.077-26.05 0-8.647 4.236-16.337 10.816-21.247-10.82-3.678-18.576-13.628-18.576-25.328 0-7.723 3.381-14.686 8.792-19.584-10.995-3.584-18.911-13.619-18.911-25.44 0-8.674 4.264-16.385 10.879-21.293-4.555-4.779-7.337-11.159-7.337-18.165 0-14.827 12.454-26.847 27.815-26.847.425 0 .846.011 1.266.029-13.857-17.8-.262-42.952 22.255-42.952 1.364 0 2.706.096 4.018.279-.259-1.564 1.534 12.11-.397-4.808-1.93-16.918 9.509-30.521 28.559-28.883 19.05 1.637 7.323.73 10.601 2.056 1.595-14.426 13.692-25.641 28.381-25.641 7.411 0 14.163 2.857 19.239 7.537C203.217 7.439 217.33 0 229.331 0zm50.757 347.542v-28.198c-40.524 27.662-73.736 28.647-109.177-3.668V359.108c18.756 31.536 90.319 31.363 109.177-.876v-10.69zm-132.66-199.576c62.553 16.591 116.993 5.493 138.47-33.131 23.84 16.132-5.165 79.536 28.225 106.464 1.65-2.598 2.881-5.329 4.017-8.058 9.441-22.688 22.813 11.004 7.239 33.337-4.874 6.987-11.727 10.682-21.123 11.551-39.128 93.525-123.806 90.756-157.989-.198-25.278-3.131-32.847-34.424-24.591-46.833 4.361-6.555 10.503-8.663 14.401-.486 1.41 2.958 2.134 6.605 2.403 10.704 9.202-4.074 10.949-38.213 8.948-73.35z"/></svg>